<svg xmlns="http://www.w3.org/2000/svg" width="19" height="19" viewBox="0 0 19 19"><defs><style>.a{fill:#677f99;}.b{fill:#fff;}.c,.e{fill:none;}.c{stroke:#677f99;}.d{stroke:none;}</style></defs><path class="a" d="M9.5,0A9.5,9.5,0,1,1,0,9.5,9.5,9.5,0,0,1,9.5,0Z"/><path class="b" d="M4.727,14.25A9.463,9.463,0,0,1,0,12.037v-.28A3.742,3.742,0,0,1,3.741,8.016h.464a4.846,4.846,0,0,0,4.058,0h.464a3.741,3.741,0,0,1,3.741,3.741v.281A9.461,9.461,0,0,1,7.742,14.25ZM2.672,3.562A3.563,3.563,0,1,1,6.235,7.125,3.563,3.563,0,0,1,2.672,3.562Z" transform="translate(3.266 4.631)"/><g class="c"><circle class="d" cx="9.5" cy="9.5" r="9.5"/><circle class="e" cx="9.5" cy="9.5" r="9"/></g></svg>