<svg version="1" xmlns="http://www.w3.org/2000/svg" width="1537.333" height="1537.333" viewBox="0 0 1153.000000 1153.000000"><path d="M.2 331.2l.3 55.3h110v243c-.1 133.7.1 243.8.3 244.8.4 1.6 3.9 1.7 55.3 1.7H221l.2-244.7.3-244.8h55l55 .1.1 244.4.1 244.5 173.6.3 173.7.2V631.5c0-134.5.3-244.5.8-244.6.4-.1 28.8-.2 63.2-.3l62.5-.1V876H916v-41.3-244.5c0-160.4.3-203.2 1.3-203.3.6-.1 29-.2 62.9-.3 54.3-.1 61.8.1 61.9 1.4.1.8.2 110.8.3 244.5l.1 243 55.3.3 55.2.2V276H861.1c-232.6 0-292 .3-292.3 1.2-.2.7-.3 110.8-.3 244.5.1 167.5-.2 243.4-1 243.6-.9.3-121.1.1-124.1-.2-.8-.1-1.1-66.2-1.2-241.4 0-132.6-.1-242.7-.1-244.5l-.1-3.2H0l.2 55.2z"/></svg>